<mxfile host="app.diagrams.net" modified="2024-03-20T11:31:34.074Z" agent="Mozilla/5.0 (Windows NT 10.0; Win64; x64) AppleWebKit/537.36 (KHTML, like Gecko) Chrome/121.0.0.0 Safari/537.36 OPR/107.0.0.0" version="24.0.7" etag="CoQJChRJT8-wOuT8A0MW" type="github">
  <diagram name="Strona-1" id="42F0w7XbDGBnCuqwF1HN">
    <mxGraphModel>
      <root>
        <mxCell id="0" />
        <mxCell id="1" parent="0" />
      </root>
    </mxGraphModel>
  </diagram>
</mxfile>
